<svg width="434" height="193" viewBox="0 0 434 193" fill="none" xmlns="http://www.w3.org/2000/svg">
<path fill-rule="evenodd" clip-rule="evenodd" d="M164.464 139.115C164.539 138.676 164.614 138.239 164.69 137.801C166.679 126.221 169.177 114.779 171.68 103.317C172.544 99.3595 173.409 95.3995 174.253 91.4307C177.726 75.1042 180.943 58.7156 184.159 42.3309C185.661 34.682 187.162 27.0339 188.689 19.3933C188.982 17.9274 189.254 16.4355 189.527 14.9355C190.15 11.5186 190.781 8.05923 191.685 4.76849C191.708 4.68408 191.742 4.52035 191.784 4.3174C191.918 3.66985 192.135 2.6229 192.351 2.47786C193.444 1.74337 196.608 2.02279 198.889 2.22417C199.719 2.29745 200.432 2.36039 200.885 2.36039C211.739 2.36039 229.883 2.889 229.883 2.889H240.5C240.671 2.79431 241.731 6.65964 242.553 9.65831C242.997 11.2807 243.373 12.6494 243.5 13C246.603 21.548 250.275 36.4849 250.275 36.4849C257.063 52.5746 272.981 97.8398 278.633 114.337L292.146 160.838L299 186.844C288.89 187.421 278.66 187.228 268.462 187.036C263.374 186.94 258.295 186.844 253.241 186.844C252.055 186.844 234.905 187.784 234.905 187.784C234.905 187.784 233.256 155.815 232.662 140.621C232.599 139.002 232.53 137.39 232.461 135.782C232.228 130.331 231.996 124.921 231.996 119.447C231.996 119.447 222.172 120.872 220.343 121.371C216.904 122.309 207.21 122.883 207.21 122.883C207.544 124.933 208.107 127.805 208.673 130.698C209.266 133.721 209.863 136.767 210.206 138.917C211.527 147.183 212.514 155.667 213.233 163.997C213.797 170.537 214.318 181.224 214.318 187.784C211.869 187.784 209.235 187.835 206.536 187.888C200.936 187.997 195.058 188.112 189.99 187.784C182.209 187.281 174.443 187.149 166.616 187.149C165.268 187.149 159 186.844 159 186.844C159 170.902 161.762 154.831 164.464 139.115ZM208.878 86.223C209.026 85.3022 209.178 84.3501 209.324 83.3333C210.357 76.1345 212.182 68.8575 214.233 62.3056L220.369 60.0072L220.789 60C220.789 60 222.631 63.2473 223.244 64.6111C224.533 67.4819 225.268 70.8307 226.007 74.1935C226.155 74.8705 226.304 75.548 226.457 76.2222C227.233 79.6345 229 88.7732 229 88.7732C229 88.7732 225.828 89.6172 224.213 90.1111C223.088 90.4551 221.982 90.9022 220.88 91.3475C219.827 91.7731 218.778 92.1971 217.721 92.5278C217.207 92.6887 216.707 92.8696 216.212 93.0486C215.039 93.4732 213.894 93.8874 212.651 94C211.973 94.0614 211.269 94.272 210.56 94.4842C209.703 94.7409 208.837 95 208 95C208 91.6988 208.414 89.1157 208.878 86.223Z" fill="#FCBE43"/>
<path d="M164.69 137.801L166.168 138.055H166.168L164.69 137.801ZM164.464 139.115L162.986 138.86L164.464 139.115ZM171.68 103.317L170.214 102.997L171.68 103.317ZM174.253 91.4307L172.786 91.1186L174.253 91.4307ZM184.159 42.3309L185.631 42.6198L184.159 42.3309ZM188.689 19.3933L187.218 19.0993L188.689 19.3933ZM189.527 14.9355L188.051 14.6665V14.6665L189.527 14.9355ZM191.685 4.76849L190.238 4.37098L190.238 4.37102L191.685 4.76849ZM191.784 4.3174L190.315 4.01331V4.01332L191.784 4.3174ZM192.351 2.47786L193.187 3.72298V3.72298L192.351 2.47786ZM198.889 2.22417L199.021 0.729986L198.889 2.22417ZM229.883 2.889L229.84 4.38837L229.862 4.389H229.883V2.889ZM240.5 2.889V4.389H240.888L241.227 4.20083L240.5 2.889ZM242.553 9.65831L243.999 9.26169V9.26169L242.553 9.65831ZM243.5 13L242.09 13.5118V13.5119L243.5 13ZM250.275 36.4849L248.819 36.843L248.847 36.9584L248.893 37.0679L250.275 36.4849ZM278.633 114.337L280.073 113.918L280.063 113.884L280.052 113.851L278.633 114.337ZM292.146 160.838L293.597 160.456L293.592 160.437L293.587 160.419L292.146 160.838ZM299 186.844L299.085 188.342L300.918 188.237L300.45 186.462L299 186.844ZM268.462 187.036L268.49 185.536L268.462 187.036ZM234.905 187.784L233.407 187.861L233.484 189.364L234.987 189.282L234.905 187.784ZM232.662 140.621L234.161 140.562L232.662 140.621ZM232.461 135.782L230.962 135.846L232.461 135.782ZM231.996 119.447H233.496V117.714L231.781 117.962L231.996 119.447ZM220.343 121.371L220.738 122.818H220.738L220.343 121.371ZM207.21 122.883L207.121 121.385L205.463 121.484L205.73 123.124L207.21 122.883ZM208.673 130.698L210.145 130.409L208.673 130.698ZM210.206 138.917L211.687 138.681L210.206 138.917ZM213.233 163.997L211.738 164.126L213.233 163.997ZM214.318 187.784V189.284H215.818V187.784H214.318ZM206.536 187.888L206.507 186.388H206.507L206.536 187.888ZM189.99 187.784L190.087 186.287H190.087L189.99 187.784ZM159 186.844H157.5V188.273L158.927 188.343L159 186.844ZM209.324 83.3333L207.839 83.1202L209.324 83.3333ZM208.878 86.223L210.359 86.4605L210.359 86.4605L208.878 86.223ZM214.233 62.3056L213.707 60.9009L213.021 61.158L212.802 61.8575L214.233 62.3056ZM220.369 60.0072L220.343 58.5075L220.085 58.5119L219.843 58.6026L220.369 60.0072ZM220.789 60L222.094 59.26L221.654 58.4849L220.763 58.5002L220.789 60ZM223.244 64.6111L221.875 65.2258L221.875 65.2258L223.244 64.6111ZM226.007 74.1935L227.472 73.872V73.8719L226.007 74.1935ZM226.457 76.2222L227.92 75.8895L227.92 75.8895L226.457 76.2222ZM229 88.7732L229.386 90.2227L230.738 89.8628L230.473 88.4885L229 88.7732ZM224.213 90.1111L224.651 91.5455H224.651L224.213 90.1111ZM220.88 91.3475L220.318 89.9568H220.318L220.88 91.3475ZM217.721 92.5278L218.169 93.9594L218.169 93.9594L217.721 92.5278ZM216.212 93.0486L215.702 91.6381L216.212 93.0486ZM212.651 94L212.515 92.5061L212.651 94ZM210.56 94.4842L210.13 93.0472L210.13 93.0472L210.56 94.4842ZM208 95H206.5V96.5H208V95ZM163.211 137.547C163.136 137.985 163.061 138.422 162.986 138.86L165.942 139.369C166.018 138.931 166.093 138.493 166.168 138.055L163.211 137.547ZM170.214 102.997C167.713 114.453 165.207 125.928 163.211 137.547L166.168 138.055C168.15 126.513 170.641 115.104 173.145 103.637L170.214 102.997ZM172.786 91.1186C171.942 95.0827 171.079 99.0388 170.214 102.997L173.145 103.637C174.009 99.6801 174.875 95.7162 175.72 91.7429L172.786 91.1186ZM182.687 42.042C179.471 58.4286 176.256 74.8055 172.786 91.1186L175.72 91.7429C179.197 75.4028 182.415 59.0026 185.631 42.6198L182.687 42.042ZM187.218 19.0993C185.69 26.7428 184.189 34.3935 182.687 42.042L185.631 42.6198C187.133 34.9705 188.633 27.3249 190.16 19.6873L187.218 19.0993ZM188.051 14.6665C187.778 16.1688 187.508 17.6481 187.218 19.0993L190.16 19.6873C190.456 18.2068 190.73 16.7023 191.003 15.2044L188.051 14.6665ZM190.238 4.37102C189.314 7.73635 188.672 11.2617 188.051 14.6665L191.003 15.2044C191.628 11.7755 192.247 8.3821 193.131 5.16597L190.238 4.37102ZM190.315 4.01332C190.294 4.11689 190.276 4.20131 190.261 4.27024C190.245 4.34656 190.238 4.37263 190.238 4.37098L193.131 5.166C193.171 5.02217 193.217 4.79416 193.253 4.62148L190.315 4.01332ZM191.514 1.23274C191.223 1.42849 191.06 1.67541 190.991 1.78768C190.907 1.92495 190.845 2.06032 190.802 2.16619C190.715 2.37922 190.644 2.61271 190.589 2.81629C190.477 3.22921 190.38 3.69915 190.315 4.01331L193.253 4.62148C193.322 4.2881 193.4 3.91079 193.484 3.6021C193.527 3.44486 193.559 3.34894 193.578 3.30464C193.587 3.28185 193.579 3.30657 193.548 3.35629C193.532 3.38269 193.501 3.43101 193.451 3.4891C193.404 3.54478 193.318 3.63531 193.187 3.72298L191.514 1.23274ZM199.021 0.729986C197.894 0.630508 196.467 0.503489 195.179 0.500071C194.533 0.49836 193.879 0.527031 193.287 0.617105C192.728 0.702129 192.063 0.863849 191.514 1.23274L193.187 3.72298C193.185 3.72463 193.325 3.64584 193.738 3.58298C194.118 3.52516 194.603 3.49856 195.171 3.50006C196.308 3.50308 197.603 3.61646 198.757 3.71836L199.021 0.729986ZM200.885 0.860394C200.515 0.860394 199.885 0.806279 199.021 0.729986L198.757 3.71836C199.553 3.78862 200.348 3.86039 200.885 3.86039V0.860394ZM229.883 2.889C229.927 1.38964 229.927 1.38963 229.927 1.38963C229.927 1.38963 229.926 1.38962 229.926 1.38961C229.926 1.3896 229.925 1.38957 229.924 1.38954C229.921 1.38947 229.918 1.38938 229.914 1.38925C229.905 1.38899 229.892 1.38861 229.874 1.38811C229.839 1.3871 229.788 1.38562 229.72 1.38368C229.584 1.3798 229.383 1.37411 229.124 1.36687C228.606 1.3524 227.855 1.33173 226.918 1.30693C225.046 1.25734 222.437 1.19121 219.488 1.12507C213.594 0.992892 206.33 0.860394 200.885 0.860394V3.86039C206.294 3.86039 213.529 3.9922 219.421 4.12432C222.365 4.19034 224.97 4.25636 226.839 4.30588C227.774 4.33064 228.524 4.35127 229.041 4.3657C229.299 4.37292 229.499 4.37859 229.634 4.38245C229.702 4.38438 229.753 4.38586 229.788 4.38686C229.805 4.38736 229.818 4.38774 229.827 4.38799C229.831 4.38811 229.834 4.38821 229.837 4.38827C229.838 4.3883 229.838 4.38833 229.839 4.38834C229.839 4.38835 229.839 4.38836 229.84 4.38836C229.84 4.38836 229.84 4.38837 229.883 2.889ZM240.5 1.389H229.883V4.389H240.5V1.389ZM243.999 9.26169C243.589 7.76629 243.115 6.03659 242.722 4.69232C242.526 4.02379 242.344 3.42784 242.196 2.99708C242.124 2.78985 242.046 2.57755 241.967 2.40523C241.935 2.33392 241.864 2.18368 241.755 2.0341C241.71 1.97228 241.575 1.79132 241.343 1.63827C241.085 1.46901 240.456 1.19801 239.773 1.57718L241.227 4.20083C240.554 4.57408 239.938 4.30489 239.694 4.14489C239.476 4.0011 239.357 3.83683 239.329 3.79885C239.255 3.69696 239.225 3.62297 239.24 3.65415C239.255 3.6868 239.294 3.78438 239.359 3.97306C239.483 4.33413 239.649 4.87417 239.842 5.53497C240.227 6.84936 240.694 8.55165 241.106 10.0549L243.999 9.26169ZM244.91 12.4882C244.81 12.2125 244.459 10.9391 243.999 9.26169L241.106 10.0549C241.536 11.6223 241.936 13.0863 242.09 13.5118L244.91 12.4882ZM250.275 36.4849C251.732 36.1268 251.732 36.1267 251.732 36.1266C251.732 36.1264 251.732 36.1262 251.732 36.126C251.732 36.1254 251.731 36.1247 251.731 36.1237C251.731 36.1218 251.73 36.119 251.729 36.1152C251.727 36.1078 251.725 36.0967 251.721 36.0822C251.714 36.0532 251.703 36.0102 251.689 35.954C251.661 35.8414 251.62 35.6757 251.567 35.462C251.46 35.0346 251.303 34.4151 251.106 33.6454C250.712 32.1061 250.154 29.9645 249.499 27.5544C248.192 22.7471 246.484 16.8247 244.91 12.4881L242.09 13.5119C243.619 17.7233 245.299 23.5434 246.604 28.3416C247.255 30.7341 247.809 32.861 248.2 34.3895C248.396 35.1537 248.551 35.768 248.656 36.1908C248.709 36.4022 248.75 36.5658 248.778 36.6762C248.791 36.7314 248.802 36.7734 248.809 36.8014C248.812 36.8154 248.815 36.8259 248.816 36.8329C248.817 36.8364 248.818 36.839 248.818 36.8407C248.818 36.8415 248.819 36.8421 248.819 36.8425C248.819 36.8427 248.819 36.8429 248.819 36.843C248.819 36.843 248.819 36.843 250.275 36.4849ZM280.052 113.851C274.405 97.3679 258.469 52.0492 251.657 35.9019L248.893 37.0679C255.656 53.1 271.557 98.3116 277.213 114.823L280.052 113.851ZM293.587 160.419L280.073 113.918L277.192 114.756L290.706 161.256L293.587 160.419ZM300.45 186.462L293.597 160.456L290.696 161.22L297.55 187.227L300.45 186.462ZM268.433 188.536C278.622 188.728 288.909 188.923 299.085 188.342L298.915 185.347C288.871 185.92 278.698 185.729 268.49 185.536L268.433 188.536ZM253.241 188.344C258.278 188.344 263.344 188.44 268.433 188.536L268.49 185.536C263.405 185.44 258.311 185.344 253.241 185.344V188.344ZM234.905 187.784C234.987 189.282 234.987 189.282 234.987 189.282C234.987 189.282 234.987 189.282 234.987 189.282C234.988 189.282 234.989 189.282 234.99 189.282C234.992 189.282 234.995 189.281 234.999 189.281C235.007 189.281 235.02 189.28 235.036 189.279C235.068 189.277 235.116 189.275 235.179 189.271C235.305 189.264 235.49 189.254 235.726 189.241C236.197 189.216 236.871 189.179 237.684 189.135C239.31 189.047 241.49 188.93 243.707 188.812C248.183 188.575 252.701 188.344 253.241 188.344V185.344C252.596 185.344 247.945 185.583 243.549 185.816C241.33 185.934 239.149 186.051 237.522 186.139C236.708 186.183 236.034 186.22 235.562 186.246C235.326 186.259 235.142 186.269 235.016 186.276C234.953 186.279 234.904 186.282 234.872 186.284C234.856 186.285 234.843 186.285 234.835 186.286C234.831 186.286 234.828 186.286 234.826 186.286C234.825 186.286 234.824 186.286 234.823 186.286C234.823 186.286 234.823 186.286 234.823 186.286C234.823 186.286 234.823 186.286 234.905 187.784ZM231.163 140.679C231.46 148.285 232.021 160.083 232.508 169.974C232.751 174.921 232.976 179.392 233.14 182.627C233.222 184.245 233.288 185.553 233.335 186.457C233.358 186.909 233.376 187.26 233.388 187.498C233.394 187.617 233.399 187.708 233.402 187.769C233.403 187.8 233.405 187.823 233.405 187.838C233.406 187.846 233.406 187.852 233.406 187.855C233.406 187.857 233.406 187.859 233.407 187.86C233.407 187.86 233.407 187.861 233.407 187.861C233.407 187.861 233.407 187.861 234.905 187.784C236.403 187.707 236.403 187.707 236.403 187.706C236.403 187.706 236.403 187.706 236.403 187.705C236.402 187.704 236.402 187.703 236.402 187.701C236.402 187.697 236.402 187.691 236.401 187.684C236.401 187.668 236.399 187.645 236.398 187.615C236.395 187.554 236.39 187.463 236.384 187.344C236.372 187.107 236.354 186.756 236.331 186.304C236.284 185.4 236.218 184.093 236.136 182.476C235.972 179.242 235.747 174.771 235.504 169.827C235.018 159.935 234.457 148.151 234.161 140.562L231.163 140.679ZM230.962 135.846C231.031 137.455 231.1 139.064 231.163 140.679L234.161 140.562C234.097 138.94 234.028 137.326 233.959 135.718L230.962 135.846ZM230.496 119.447C230.496 124.958 230.729 130.4 230.962 135.846L233.959 135.718C233.726 130.261 233.496 124.883 233.496 119.447H230.496ZM220.738 122.818C221.549 122.597 224.352 122.131 227.086 121.704C228.424 121.495 229.706 121.302 230.653 121.161C231.127 121.091 231.517 121.033 231.788 120.993C231.924 120.973 232.03 120.958 232.102 120.947C232.138 120.942 232.165 120.938 232.184 120.935C232.193 120.934 232.2 120.933 232.205 120.932C232.207 120.932 232.209 120.932 232.21 120.932C232.21 120.932 232.211 120.931 232.211 120.931C232.211 120.931 232.211 120.931 232.211 120.931C232.211 120.931 232.211 120.931 231.996 119.447C231.781 117.962 231.781 117.962 231.781 117.962C231.78 117.962 231.78 117.962 231.78 117.963C231.78 117.963 231.779 117.963 231.779 117.963C231.778 117.963 231.776 117.963 231.773 117.964C231.768 117.964 231.761 117.965 231.752 117.967C231.733 117.969 231.705 117.973 231.669 117.979C231.596 117.989 231.489 118.005 231.353 118.025C231.079 118.065 230.687 118.123 230.212 118.194C229.26 118.336 227.971 118.53 226.624 118.74C223.989 119.151 220.966 119.646 219.949 119.924L220.738 122.818ZM207.21 122.883C207.299 124.38 207.299 124.38 207.299 124.38C207.299 124.38 207.299 124.38 207.299 124.38C207.3 124.38 207.3 124.38 207.301 124.38C207.302 124.38 207.304 124.38 207.307 124.38C207.312 124.379 207.319 124.379 207.329 124.378C207.348 124.377 207.376 124.376 207.412 124.373C207.485 124.369 207.593 124.362 207.73 124.353C208.005 124.336 208.4 124.309 208.885 124.275C209.854 124.206 211.184 124.104 212.623 123.972C215.448 123.714 218.868 123.328 220.738 122.818L219.949 119.924C218.379 120.352 215.233 120.721 212.35 120.985C210.936 121.114 209.628 121.214 208.672 121.282C208.194 121.316 207.806 121.342 207.537 121.359C207.402 121.368 207.298 121.375 207.227 121.379C207.192 121.381 207.165 121.383 207.148 121.384C207.139 121.384 207.132 121.385 207.128 121.385C207.125 121.385 207.124 121.385 207.123 121.385C207.122 121.385 207.122 121.385 207.122 121.385C207.122 121.385 207.121 121.385 207.121 121.385C207.121 121.385 207.121 121.385 207.21 122.883ZM210.145 130.409C209.577 127.507 209.019 124.662 208.691 122.642L205.73 123.124C206.068 125.203 206.636 128.103 207.201 130.986L210.145 130.409ZM211.687 138.681C211.339 136.498 210.736 133.422 210.145 130.409L207.201 130.986C207.796 134.021 208.387 137.036 208.725 139.154L211.687 138.681ZM214.727 163.868C214.006 155.509 213.015 146.988 211.687 138.681L208.725 139.154C210.039 147.378 211.022 155.825 211.738 164.126L214.727 163.868ZM215.818 187.784C215.818 181.174 215.294 170.444 214.727 163.868L211.738 164.126C212.299 170.63 212.818 181.273 212.818 187.784H215.818ZM206.565 189.388C209.267 189.335 211.887 189.284 214.318 189.284V186.284C211.852 186.284 209.202 186.336 206.507 186.388L206.565 189.388ZM189.893 189.281C195.037 189.614 200.982 189.497 206.565 189.388L206.507 186.388C200.89 186.498 195.08 186.61 190.087 186.287L189.893 189.281ZM166.616 188.649C174.427 188.649 182.158 188.781 189.893 189.281L190.087 186.287C182.26 185.781 174.458 185.649 166.616 185.649V188.649ZM159 186.844C158.927 188.343 158.927 188.343 158.927 188.343C158.927 188.343 158.927 188.343 158.928 188.343C158.928 188.343 158.928 188.343 158.928 188.343C158.929 188.343 158.93 188.343 158.932 188.343C158.935 188.343 158.939 188.343 158.945 188.343C158.957 188.344 158.975 188.345 158.998 188.346C159.045 188.348 159.113 188.352 159.2 188.356C159.375 188.364 159.625 188.376 159.93 188.39C160.54 188.419 161.367 188.457 162.237 188.495C163.955 188.571 165.901 188.649 166.616 188.649V185.649C165.984 185.649 164.122 185.575 162.368 185.498C161.503 185.46 160.679 185.422 160.071 185.394C159.767 185.379 159.517 185.367 159.344 185.359C159.257 185.355 159.189 185.352 159.143 185.349C159.12 185.348 159.102 185.348 159.091 185.347C159.085 185.347 159.08 185.346 159.077 185.346C159.076 185.346 159.075 185.346 159.074 185.346C159.074 185.346 159.073 185.346 159.073 185.346C159.073 185.346 159.073 185.346 159.073 185.346C159.073 185.346 159.073 185.346 159 186.844ZM162.986 138.86C160.288 154.554 157.5 170.752 157.5 186.844H160.5C160.5 171.051 163.237 155.108 165.942 139.369L162.986 138.86ZM207.839 83.1202C207.695 84.123 207.545 85.0634 207.397 85.9856L210.359 86.4605C210.506 85.541 210.661 84.5772 210.809 83.5465L207.839 83.1202ZM212.802 61.8575C210.733 68.4646 208.887 75.8221 207.839 83.1202L210.809 83.5465C211.828 76.447 213.631 69.2505 215.665 62.7537L212.802 61.8575ZM219.843 58.6026L213.707 60.9009L214.759 63.7103L220.895 61.4119L219.843 58.6026ZM220.763 58.5002L220.343 58.5075L220.395 61.507L220.815 61.4998L220.763 58.5002ZM224.612 63.9965C224.278 63.2522 223.635 62.0483 223.103 61.0746C222.831 60.578 222.58 60.125 222.396 59.7963C222.304 59.6319 222.229 59.4983 222.176 59.4056C222.15 59.3592 222.13 59.323 222.116 59.2984C222.109 59.286 222.103 59.2766 222.1 59.2701C222.098 59.2669 222.096 59.2644 222.096 59.2627C222.095 59.2619 222.095 59.2612 222.094 59.2607C222.094 59.2605 222.094 59.2603 222.094 59.2602C222.094 59.2601 222.094 59.2601 222.094 59.26C222.094 59.26 222.094 59.26 220.789 60C219.485 60.74 219.484 60.74 219.484 60.74C219.485 60.7401 219.485 60.7401 219.485 60.7401C219.485 60.7402 219.485 60.7403 219.485 60.7404C219.485 60.7408 219.485 60.7413 219.486 60.742C219.486 60.7435 219.488 60.7457 219.489 60.7486C219.493 60.7545 219.498 60.7635 219.504 60.7752C219.518 60.7988 219.537 60.8337 219.563 60.8788C219.614 60.9691 219.687 61.0998 219.778 61.2611C219.958 61.5839 220.205 62.028 220.471 62.5137C221.012 63.5046 221.597 64.6062 221.875 65.2258L224.612 63.9965ZM227.472 73.8719C226.741 70.5449 225.977 67.0353 224.612 63.9965L221.875 65.2258C223.09 67.9285 223.795 71.1165 224.541 74.5151L227.472 73.8719ZM227.92 75.8895C227.768 75.2217 227.62 74.5498 227.472 73.872L224.541 74.5151C224.69 75.1911 224.84 75.8742 224.995 76.5549L227.92 75.8895ZM229 88.7732C230.473 88.4885 230.473 88.4884 230.473 88.4883C230.473 88.4883 230.473 88.4882 230.473 88.488C230.473 88.4877 230.473 88.4873 230.472 88.4867C230.472 88.4856 230.472 88.4839 230.471 88.4817C230.471 88.4772 230.469 88.4706 230.468 88.4619C230.464 88.4444 230.459 88.4184 230.453 88.3844C230.439 88.3164 230.42 88.2164 230.395 88.0879C230.345 87.8309 230.273 87.46 230.184 87.0044C230.006 86.0932 229.761 84.8426 229.491 83.485C228.953 80.778 228.313 77.6194 227.92 75.8895L224.995 76.5549C225.377 78.2373 226.009 81.3543 226.548 84.0696C226.817 85.4232 227.062 86.6705 227.24 87.5795C227.328 88.0339 227.4 88.4037 227.45 88.6598C227.475 88.7878 227.494 88.8874 227.507 88.955C227.514 88.9888 227.519 89.0145 227.522 89.0318C227.524 89.0405 227.525 89.047 227.526 89.0514C227.526 89.0535 227.527 89.0552 227.527 89.0563C227.527 89.0568 227.527 89.0572 227.527 89.0575C227.527 89.0576 227.527 89.0577 227.527 89.0578C227.527 89.0578 227.527 89.0579 229 88.7732ZM224.651 91.5455C225.436 91.3057 226.613 90.9764 227.608 90.7036C228.103 90.5679 228.548 90.4476 228.869 90.3612C229.029 90.318 229.159 90.2833 229.248 90.2595C229.293 90.2475 229.327 90.2383 229.351 90.2321C229.362 90.229 229.371 90.2266 229.377 90.2251C229.38 90.2243 229.382 90.2237 229.384 90.2233C229.384 90.2231 229.385 90.223 229.385 90.2229C229.385 90.2228 229.386 90.2228 229.386 90.2228C229.386 90.2227 229.386 90.2227 229.386 90.2227C229.386 90.2227 229.386 90.2227 229 88.7732C228.614 87.3236 228.614 87.3236 228.614 87.3236C228.614 87.3236 228.614 87.3236 228.614 87.3236C228.614 87.3237 228.614 87.3237 228.614 87.3238C228.613 87.3239 228.613 87.3241 228.612 87.3243C228.61 87.3247 228.608 87.3253 228.605 87.3261C228.599 87.3278 228.589 87.3302 228.577 87.3334C228.553 87.3398 228.518 87.3492 228.473 87.3613C228.382 87.3856 228.251 87.4207 228.089 87.4643C227.765 87.5516 227.316 87.6732 226.815 87.8103C225.821 88.083 224.605 88.4226 223.774 88.6767L224.651 91.5455ZM221.442 92.7382C222.555 92.2885 223.6 91.8671 224.651 91.5455L223.774 88.6767C222.576 89.0431 221.409 89.5159 220.318 89.9568L221.442 92.7382ZM218.169 93.9594C219.294 93.6074 220.4 93.1596 221.442 92.7382L220.318 89.9568C219.255 90.3866 218.263 90.7868 217.273 91.0962L218.169 93.9594ZM216.723 94.459C217.222 94.2783 217.691 94.1088 218.169 93.9594L217.273 91.0962C216.722 91.2685 216.192 91.4608 215.702 91.6381L216.723 94.459ZM212.786 95.4939C214.254 95.361 215.579 94.873 216.723 94.459L215.702 91.6381C214.499 92.0734 213.534 92.4139 212.515 92.5061L212.786 95.4939ZM210.99 95.9212C211.732 95.6991 212.286 95.5391 212.786 95.4939L212.515 92.5061C211.659 92.5836 210.806 92.845 210.13 93.0472L210.99 95.9212ZM208 96.5C209.098 96.5 210.181 96.1634 210.99 95.9212L210.13 93.0472C209.224 93.3185 208.577 93.5 208 93.5V96.5ZM207.397 85.9856C206.933 88.8758 206.5 91.5658 206.5 95H209.5C209.5 91.8317 209.895 89.3557 210.359 86.4605L207.397 85.9856Z" fill="#FCBE43"/>
<path fill-rule="evenodd" clip-rule="evenodd" d="M312 5.44789L316.502 190.282C349.424 195.059 423.954 193.7 429.551 170.167C437.824 135.381 429.059 108.092 425.611 103.315C423.241 99.2711 414.555 91.6375 398.572 92.862C408.786 91.7671 424.405 82.7219 425.611 51.9993C415.409 12.666 408.041 -2.22542 312 5.44789ZM355 41.0122V63.9996C365.648 63.9996 385.828 61.1704 381.366 49.8535C376.904 38.5366 361.93 39.2439 355 41.0122ZM360.268 146.989L357.916 116.43C364.644 113.547 379.502 111.458 385.109 126.16C390.716 140.862 370.885 146.172 360.268 146.989Z" fill="#FCBE43"/>
<path d="M316.502 190.282L316.002 190.294L316.012 190.716L316.43 190.777L316.502 190.282ZM312 5.44789L311.96 4.94948L311.489 4.98716L311.5 5.46007L312 5.44789ZM429.551 170.167L430.037 170.283L429.551 170.167ZM425.611 103.315L425.18 103.568L425.192 103.588L425.206 103.607L425.611 103.315ZM398.572 92.862L398.519 92.3648L398.61 93.3605L398.572 92.862ZM425.611 51.9993L426.111 52.0189L426.114 51.9452L426.095 51.8738L425.611 51.9993ZM355 63.9996H354.5V64.4996H355V63.9996ZM355 41.0122L354.876 40.5277L354.5 40.6237V41.0122H355ZM381.366 49.8535L381.831 49.6701L381.366 49.8535ZM357.916 116.43L357.719 115.97L357.39 116.111L357.418 116.468L357.916 116.43ZM360.268 146.989L359.77 147.028L359.808 147.526L360.307 147.488L360.268 146.989ZM385.109 126.16L385.576 125.982L385.109 126.16ZM398.572 92.862L398.625 93.3591L398.534 92.3634L398.572 92.862ZM397.687 92.9381L397.64 92.4404L397.72 93.4371L397.687 92.9381ZM317.002 190.27L312.5 5.43572L311.5 5.46007L316.002 190.294L317.002 190.27ZM429.064 170.052C427.724 175.685 422.224 180.098 413.967 183.447C405.739 186.784 394.921 189.004 383.217 190.344C359.812 193.023 332.992 192.17 316.574 189.787L316.43 190.777C332.934 193.172 359.84 194.027 383.33 191.338C395.074 189.993 405.994 187.76 414.343 184.373C422.664 180.998 428.579 176.416 430.037 170.283L429.064 170.052ZM425.206 103.607C426.018 104.734 427.193 107.271 428.367 111.033C429.536 114.778 430.69 119.697 431.481 125.554C433.062 137.269 433.185 152.726 429.064 170.052L430.037 170.283C434.19 152.823 434.067 137.241 432.472 125.421C431.674 119.51 430.508 114.537 429.322 110.735C428.141 106.95 426.928 104.285 426.017 103.022L425.206 103.607ZM398.61 93.3605C414.413 92.1498 422.912 99.6979 425.18 103.568L426.043 103.062C423.571 98.8443 414.697 91.1252 398.534 92.3634L398.61 93.3605ZM425.112 51.9797C424.512 67.2587 420.332 77.0835 415.09 83.2162C409.847 89.3494 403.51 91.8298 398.519 92.3648L398.625 93.3591C403.848 92.7993 410.428 90.2097 415.85 83.8659C421.273 77.5217 425.505 67.4625 426.111 52.0189L425.112 51.9797ZM312.04 5.94631C336.041 4.02875 354.481 3.52277 368.802 4.45208C383.126 5.38158 393.293 7.74517 400.769 11.5419C415.667 19.1085 420.021 32.4371 425.127 52.1248L426.095 51.8738C421 32.2282 416.568 18.4445 401.222 10.6503C393.575 6.76673 383.255 4.38787 368.867 3.45418C354.476 2.52031 335.98 3.03039 311.96 4.94948L312.04 5.94631ZM355.5 63.9996V41.0122H354.5V63.9996H355.5ZM380.901 50.0369C381.956 52.7138 381.546 54.825 380.23 56.5329C378.884 58.279 376.553 59.6522 373.678 60.7007C367.938 62.7939 360.298 63.4996 355 63.4996V64.4996C360.35 64.4996 368.124 63.7907 374.02 61.6401C376.964 60.5666 379.506 59.1106 381.022 57.1433C382.567 55.1379 383.007 52.6516 381.831 49.6701L380.901 50.0369ZM355.124 41.4966C358.536 40.6258 363.935 40.0176 369.012 41.0165C374.08 42.0136 378.754 44.5918 380.901 50.0369L381.831 49.6701C379.516 43.7983 374.472 41.0717 369.205 40.0353C363.946 39.0007 358.393 39.6303 354.876 40.5277L355.124 41.4966ZM357.418 116.468L359.77 147.028L360.767 146.951L358.415 116.391L357.418 116.468ZM385.576 125.982C382.705 118.454 377.436 115.192 372.022 114.209C366.644 113.231 361.147 114.502 357.719 115.97L358.113 116.889C361.414 115.475 366.709 114.259 371.844 115.192C376.942 116.119 381.906 119.164 384.642 126.338L385.576 125.982ZM360.307 147.488C365.652 147.076 373.349 145.534 379.025 142.213C381.866 140.55 384.242 138.418 385.537 135.718C386.84 133.001 387.02 129.768 385.576 125.982L384.642 126.338C386.001 129.903 385.805 132.847 384.635 135.286C383.457 137.742 381.262 139.745 378.52 141.35C373.028 144.564 365.501 146.085 360.23 146.491L360.307 147.488ZM398.534 92.3634C398.238 92.3861 397.94 92.4117 397.64 92.4404L397.735 93.4359C398.029 93.4078 398.321 93.3827 398.61 93.3605L398.534 92.3634ZM397.72 93.4371C398.017 93.4179 398.319 93.392 398.625 93.3591L398.519 92.3648C398.226 92.3962 397.938 92.4209 397.655 92.4392L397.72 93.4371Z" fill="#FCBE43"/>
<path d="M9.5 2.5L1 185.5H45.5V120L67.5 185.5H134L145.5 2.5H95L91 103L45.5 2.5H9.5Z" fill="#FCBE43" stroke="#FCBE43"/>
</svg>
